# xmcd
#
# Track frame offsets:
#	150
#	21073
#	37717
#	60297
#	79895
#	104801
#	122816
#	160349
#	185786
#	203453
#	241199
#	265264
#	288683
#
# Disc length: 4428 seconds
#
# Revision: 1
# Processed by: cddbd v1.5.2PL0 Copyright (c) Steve Scherf et al.
# Submitted via: audiograbber 1.83.01
#
DISCID=b0114a0d
DTITLE=Whiskey Myers - Road Of Life
DYEAR=2008
DGENRE=Southern Rock
TTITLE0=Thief Of Hearts
TTITLE1=Kyle Hope
TTITLE2=Gone Away
TTITLE3=Lonely East TX Nights
TTITLE4=Hippie's Lament
TTITLE5=Road Of Life
TTITLE6=Melancholy Blues
TTITLE7=Goodbye Girl
TTITLE8=Summer 2005
TTITLE9=American Outlaws
TTITLE10=Nobody Knows Her Name
TTITLE11=Russell's Song
TTITLE12=TYA
EXTD=
EXTT0=
EXTT1=
EXTT2=
EXTT3=
EXTT4=
EXTT5=
EXTT6=
EXTT7=
EXTT8=
EXTT9=
EXTT10=
EXTT11=
EXTT12=
PLAYORDER=
